<svg width="60" height="60" viewBox="0 0 60 60" fill="none" xmlns="http://www.w3.org/2000/svg">
<rect width="60" height="60" rx="12" fill="#1A1A1A"/>
<path d="M20.25 20.25C19.8358 20.25 19.5 20.5858 19.5 21C19.5 21.4142 19.8358 21.75 20.25 21.75H21.6357C21.8056 21.75 21.9543 21.8642 21.998 22.0284L24.5558 31.6199C22.9418 32.0385 21.75 33.5051 21.75 35.25C21.75 35.6642 22.0858 36 22.5 36H38.25C38.6642 36 39 35.6642 39 35.25C39 34.8358 38.6642 34.5 38.25 34.5H23.378C23.6869 33.6261 24.5203 33 25.5 33H36.7183C37.0051 33 37.2668 32.8364 37.3925 32.5785C38.5277 30.249 39.5183 27.836 40.3527 25.3513C40.4191 25.1536 40.4002 24.9372 40.3005 24.754C40.2008 24.5708 40.0294 24.4374 39.8273 24.3858C35.0055 23.1544 29.9536 22.5 24.75 22.5C24.3922 22.5 24.0351 22.5031 23.6787 22.5093L23.4474 21.6419C23.2285 20.8211 22.4851 20.25 21.6357 20.25H20.25Z" fill="white"/>
<path d="M21.75 38.25C21.75 37.4216 22.4216 36.75 23.25 36.75C24.0784 36.75 24.75 37.4216 24.75 38.25C24.75 39.0784 24.0784 39.75 23.25 39.75C22.4216 39.75 21.75 39.0784 21.75 38.25Z" fill="white"/>
<path d="M34.5 38.25C34.5 37.4216 35.1716 36.75 36 36.75C36.8284 36.75 37.5 37.4216 37.5 38.25C37.5 39.0784 36.8284 39.75 36 39.75C35.1716 39.75 34.5 39.0784 34.5 38.25Z" fill="white"/>
</svg>
