<svg width="28" height="28" viewBox="0 0 28 28" fill="none" xmlns="http://www.w3.org/2000/svg">
<path d="M24.745 18.5383C24.0028 20.2936 22.8419 21.8403 21.3639 23.0432C19.8858 24.2461 18.1356 25.0687 16.2662 25.4389C14.3968 25.8092 12.4652 25.7158 10.6402 25.1671C8.8152 24.6184 7.15242 23.6309 5.79721 22.2911C4.44201 20.9513 3.43564 19.2999 2.8661 17.4813C2.29655 15.6627 2.18118 13.7322 2.53005 11.8587C2.87893 9.98524 3.68143 8.22573 4.86741 6.73403C6.05338 5.24234 7.58672 4.06387 9.33336 3.30167" stroke="#A7A8AB" stroke-width="2" stroke-linecap="round" stroke-linejoin="round"/>
<path d="M25.6667 14C25.6667 12.4679 25.3649 10.9508 24.7786 9.53536C24.1923 8.1199 23.3329 6.83377 22.2496 5.75042C21.1662 4.66707 19.8801 3.80771 18.4646 3.22141C17.0492 2.6351 15.5321 2.33334 14 2.33334V14H25.6667Z" stroke="#A7A8AB" stroke-width="2" stroke-linecap="round" stroke-linejoin="round"/>
</svg>
