<svg width="28" height="28" viewBox="0 0 28 28" fill="none" xmlns="http://www.w3.org/2000/svg">
<path d="M21.9973 3.23706C22.3627 3.23709 22.6896 3.56403 22.6896 3.92944V6.79077H24.0705C25.2642 6.79077 26.2443 7.77094 26.2443 8.9646V22.5896C26.2443 23.7833 25.2642 24.7634 24.0705 24.7634H3.92889C2.73532 24.7633 1.75604 23.7832 1.75604 22.5896V5.70678C1.75604 4.34903 2.86801 3.23706 4.22577 3.23706H21.9973ZM3.14081 22.5896C3.14081 23.0368 3.48167 23.3786 3.92889 23.3787H24.0705C24.5178 23.3787 24.8596 23.0369 24.8596 22.5896V19.1355H16.3693C15.504 19.1353 14.7883 18.4198 14.7883 17.5544V13.9998C14.7884 13.1345 15.5041 12.4189 16.3693 12.4187H24.8596V8.9646C24.8596 8.51729 24.5178 8.17553 24.0705 8.17553C18.3362 8.17553 10.8972 8.16961 4.22577 8.17553C3.8368 8.17553 3.46833 8.08109 3.14081 7.9187V22.5896ZM16.3693 13.8035C16.3063 13.8034 16.2585 13.8254 16.2267 13.8572C16.1951 13.8889 16.1731 13.9367 16.173 13.9998V17.5544C16.173 17.6176 16.1951 17.6653 16.2267 17.697C16.2584 17.7287 16.3062 17.7507 16.3693 17.7507H24.8596V13.8035H16.3693ZM19.3312 14.4919C20.0408 14.4919 20.6163 15.0676 20.6164 15.7771C20.6164 16.4867 20.0408 17.0623 19.3312 17.0623C18.6219 17.062 18.0471 16.4866 18.0471 15.7771C18.0471 15.0677 18.6219 14.4922 19.3312 14.4919ZM4.22577 4.62182C3.61436 4.62182 3.14081 5.09538 3.14081 5.70678C3.14106 6.31796 3.61452 6.79077 4.22577 6.79077H21.3049V4.62182H4.22577Z" fill="#A7A8AB" stroke="#A7A8AB" stroke-width="0.2"/>
</svg>
